HIERARCHY
ROOT Hips
{
	OFFSET 0.000000 0.000000 0.000000 
	CHANNELS 6 Xposition Yposition Zposition Zrotation Yrotation Xrotation
	JOINT LeftUpLeg
	{
		OFFSET 1.363060 -1.794630 0.839290 
		CHANNELS 3 Zrotation Yrotation Xrotation
		JOINT LeftLeg
		{
			OFFSET 2.448110 -6.726130 0.000000 
			CHANNELS 3 Zrotation Yrotation Xrotation
			JOINT LeftFoot
			{
				OFFSET 2.562200 -7.039590 0.000000 
				CHANNELS 3 Zrotation Yrotation Xrotation
				JOINT LeftToeBase
				{
					OFFSET 0.157640 -0.433110 2.322550 
					CHANNELS 3 Zrotation Yrotation Xrotation
					End Site
					{
						OFFSET 0.000000 0.000000 0.000000 
					}
				}
			}
		}
	}
	JOINT RightUpLeg
	{
		OFFSET -1.305520 -1.794630 0.839290 
		CHANNELS 3 Zrotation Yrotation Xrotation
		JOINT RightLeg
		{
			OFFSET -2.542530 -6.985550 0.000000 
			CHANNELS 3 Zrotation Yrotation Xrotation
			JOINT RightFoot
			{
				OFFSET -2.568260 -7.056230 0.000000 
				CHANNELS 3 Zrotation Yrotation Xrotation
				JOINT RightToeBase
				{
					OFFSET -0.164730 -0.452590 2.363150 
					CHANNELS 3 Zrotation Yrotation Xrotation
					End Site
					{
						OFFSET 0.000000 0.000000 0.000000 
					}
				}
			}
		}
	}
	JOINT Spine
	{
		OFFSET 0.028270 2.035590 -0.193380 
		CHANNELS 3 Zrotation Yrotation Xrotation
		JOINT Spine1
		{
			OFFSET 0.056720 2.048850 -0.042750 
			CHANNELS 3 Zrotation Yrotation Xrotation
			JOINT Neck1
			{
				OFFSET -0.054170 1.746240 0.172020 
				CHANNELS 3 Zrotation Yrotation Xrotation
				JOINT Head
				{
					OFFSET 0.104070 1.761360 -0.123970 
					CHANNELS 3 Zrotation Yrotation Xrotation
					End Site
					{
						OFFSET 0.000000 0.000000 0.000000 
					}
				}
			}
			JOINT LeftArm
			{
				OFFSET 3.362410 1.200890 -0.311210 
				CHANNELS 3 Zrotation Yrotation Xrotation
				JOINT LeftForeArm
				{
					OFFSET 4.983000 -0.000000 -0.000000 
					CHANNELS 3 Zrotation Yrotation Xrotation
					JOINT LeftHand
					{
						OFFSET 3.483560 -0.000000 -0.000000 
						CHANNELS 3 Zrotation Yrotation Xrotation
						JOINT LeftHandIndex1
						{
							OFFSET 0.715260 -0.000000 -0.000000 
							CHANNELS 3 Zrotation Yrotation Xrotation
							End Site
							{
								OFFSET 0.000000 0.000000 0.000000 
							}
						}
					}
				}
			}
			JOINT RightArm
			{
				OFFSET -3.136600 1.374050 -0.404650 
				CHANNELS 3 Zrotation Yrotation Xrotation
				JOINT RightForeArm
				{
					OFFSET -5.241900 -0.000000 -0.000000 
					CHANNELS 3 Zrotation Yrotation Xrotation
					JOINT RightHand
					{
						OFFSET -3.444170 -0.000000 -0.000000 
						CHANNELS 3 Zrotation Yrotation Xrotation
						JOINT RightHandIndex1
						{
							OFFSET -0.622530 -0.000000 -0.000000 
							CHANNELS 3 Zrotation Yrotation Xrotation
							End Site
							{
								OFFSET 0.000000 0.000000 0.000000 
							}
						}
					}
				}
			}
		}
	}
}
MOTION
Frames: 9
Frame Time: 0.041667
18.126659 17.413579 39.069870 -166.371955 -24.962679 -170.167992 8.205099 -2.563904 -51.414423 2.661698 12.713270 27.658867 0.690533 16.062021 38.516072 1.309000 -7.247400 -20.450400 18.780057 -0.875085 -6.851800 -2.549983 -12.614231 36.449538 -0.713097 -5.729897 28.449214 -1.582100 7.935300 -22.517800 1.994159 7.426312 -0.878548 -4.211482 3.473385 -2.220098 2.019352 -1.976171 5.299281 -0.944800 -1.242500 6.879600 -64.761684 33.519900 33.653935 29.268359 -42.934567 -20.371455 -2.243562 -1.756703 -2.420568 -7.125000 0.000000 0.000000 62.196021 0.569544 39.833256 -73.983103 56.479299 -51.195974 1.512649 -0.354411 -0.793074 7.125000 0.000000 0.000000 
17.934537 17.405087 38.715665 -166.241113 -25.018699 -170.179544 7.671837 -2.268038 -51.638114 2.968845 13.005512 28.710190 0.934981 15.950713 39.552832 1.248000 -7.083100 -19.961800 19.029158 -1.373747 -8.415582 -3.728327 -13.683119 40.322163 -0.781146 -5.581514 29.581334 -0.972100 6.277000 -17.590200 1.968835 7.107043 -0.847348 -4.345174 3.277408 -2.336631 2.243433 -1.793495 5.411580 -0.805000 -1.128600 6.989400 -65.684819 33.421892 32.638359 29.756609 -43.109168 -20.729388 -2.182753 -1.860860 -2.734654 -7.125000 0.000000 0.000000 63.172878 0.055949 39.756967 -75.460994 56.725247 -52.368955 1.503797 -0.393156 -0.928743 7.125000 0.000000 0.000000 
17.746980 17.377702 38.359443 -166.249396 -25.038425 -170.258442 6.983657 -1.917091 -51.921709 3.265306 13.353287 30.220550 1.476790 14.615907 40.769968 1.300500 -7.224900 -20.383300 19.355363 -1.845064 -9.879871 -5.061560 -14.743601 44.750608 -0.412058 -5.044306 26.636790 -0.988700 6.328600 -17.740900 1.944527 6.824626 -0.786860 -4.420516 3.098417 -2.506426 2.274022 -1.561507 5.374210 -0.796200 -1.007000 6.896300 -66.693969 32.731594 31.212865 29.242835 -42.627623 -20.200885 -2.164196 -1.803249 -2.776786 -7.125000 0.000000 0.000000 64.212319 -0.568955 39.529020 -76.903548 56.959038 -53.545005 1.518445 -0.447291 -1.140805 7.125000 0.000000 0.000000 
17.558360 17.337473 38.007255 -166.261033 -24.888422 -170.353219 6.471349 -1.641937 -52.005569 3.555302 13.698988 31.761790 2.068450 13.008427 42.048992 1.349000 -7.353000 -20.765300 19.592300 -2.269896 -11.430906 -6.489212 -15.702616 49.090893 0.081112 -5.291154 23.676515 -1.062400 6.553000 -18.397700 1.951767 6.790884 -0.678279 -4.201085 3.027538 -2.508586 2.282812 -1.460510 5.271932 -0.814300 -0.957300 6.746200 -67.508729 31.594582 30.408520 28.824994 -42.164205 -19.686218 -2.143758 -1.863578 -3.097112 -7.125000 0.000000 0.000000 64.994170 -1.208224 38.985485 -78.138226 57.155793 -54.665920 1.523567 -0.458000 -1.464280 7.125000 0.000000 0.000000 
17.378445 17.300429 37.679268 -166.604965 -25.078144 -170.407381 5.809086 -1.866430 -52.064297 3.760327 14.090293 33.904357 1.801222 10.307978 39.074141 0.646400 -5.143000 -14.317000 19.578561 -3.395194 -13.876137 -8.029659 -16.579166 53.532193 0.644934 -5.994302 20.587990 -0.963700 6.250400 -17.512700 1.939965 6.528608 -0.579201 -4.130413 2.830805 -2.696875 2.199930 -1.276879 5.230787 -0.886100 -0.872800 6.685000 -68.132559 29.905882 29.914710 28.591723 -41.709610 -19.246652 -2.209820 -1.739342 -3.445344 -7.125000 0.000000 0.000000 65.609990 -1.467936 38.629623 -78.492838 57.206903 -54.977071 1.535670 -0.462168 -1.964380 7.125000 0.000000 0.000000 
17.194072 17.249904 37.346292 -166.804224 -25.177011 -170.415683 5.258780 -2.007510 -52.277766 4.151619 14.548184 35.974642 1.679838 8.800626 37.364828 0.478000 -4.433700 -12.300000 19.582473 -4.045059 -15.955370 -9.518559 -17.326827 57.889695 1.021102 -6.294298 17.809414 -0.864000 5.927300 -16.573500 1.924344 6.283079 -0.496774 -4.103753 2.654017 -2.849501 2.150730 -1.090242 5.169106 -0.931900 -0.783600 6.610200 -68.767297 28.500290 29.255212 28.344070 -41.293340 -18.858366 -2.241601 -1.693233 -3.624661 -7.125000 0.000000 0.000000 66.289672 -1.809621 38.302888 -79.192623 57.300803 -55.567298 1.540418 -0.478944 -2.267342 7.125000 0.000000 0.000000 
17.011290 17.190993 37.021913 -167.057133 -25.324190 -170.399871 4.740348 -2.294319 -52.481112 4.608532 15.042499 38.197380 1.438007 7.464524 34.929131 0.339500 -3.744000 -10.357500 19.506112 -4.721230 -18.218727 -10.991377 -17.957443 62.197201 1.341083 -6.533237 14.823200 -0.760500 5.569100 -15.539300 1.908571 6.013606 -0.414819 -4.087127 2.461781 -3.026256 2.058964 -0.898377 5.078085 -1.002400 -0.696200 6.527200 -69.304288 26.886677 28.723420 28.095734 -40.852097 -18.458283 -2.286883 -1.629923 -3.700751 -7.125000 0.000000 0.000000 66.867798 -2.024873 37.977562 -79.613497 57.351265 -55.926068 1.541634 -0.490611 -2.508736 7.125000 0.000000 0.000000 
16.829252 17.137921 36.705496 -167.351144 -25.504608 -170.327193 4.244758 -2.677293 -52.602219 5.101975 15.526879 40.394176 1.120614 6.434703 31.990483 0.230800 -3.092300 -8.535900 19.353084 -5.389686 -20.669870 -12.393824 -18.460167 66.302547 1.571109 -6.679868 11.943053 -0.641300 5.123300 -14.260700 1.891362 5.728222 -0.335875 -4.082942 2.260932 -3.210035 1.942219 -0.711142 4.958879 -1.082700 -0.614800 6.442300 -69.730772 25.095199 28.349627 27.896493 -40.424241 -18.093241 -2.338924 -1.558777 -3.658718 -7.125000 0.000000 0.000000 67.321699 -2.086939 37.648250 -79.733568 57.358024 -56.040602 1.538690 -0.495689 -2.666472 7.125000 0.000000 0.000000 
16.648806 17.067441 36.399162 -167.696123 -25.725793 -170.187327 3.769721 -3.175557 -52.801327 5.661508 16.029380 42.661339 0.775966 5.676621 28.746214 0.150700 -2.501200 -6.893000 19.132767 -6.020394 -23.327344 -13.741652 -18.855203 70.284306 1.680155 -6.604045 9.119014 -0.524300 4.640400 -12.885800 1.870557 5.418125 -0.262724 -4.086198 2.047633 -3.397809 1.842044 -0.531899 4.833292 -1.134600 -0.539900 6.377800 -70.038384 23.134863 28.112013 27.739066 -40.008151 -17.762964 -2.391732 -1.475053 -3.471745 -7.125000 0.000000 0.000000 67.650573 -1.968930 37.314911 -79.548276 57.319413 -55.907297 1.532917 -0.494693 -2.737443 7.125000 0.000000 0.000000 
